<mxfile host="app.diagrams.net" modified="2022-04-16T16:03:29.456Z" agent="5.0 (Windows)" etag="zJBgo0BmTPf_RuRbsbm2" version="17.4.5" type="github">
  <diagram id="vNnOyMlAFvFQMwYOOxnf" name="Page-1">
    <mxGraphModel dx="1240" dy="629" grid="1" gridSize="10" guides="1" tooltips="1" connect="1" arrows="1" fold="1" page="1" pageScale="1" pageWidth="827" pageHeight="1169" math="0" shadow="0">
      <root>
        <mxCell id="0" />
        <mxCell id="1" parent="0" />
        <mxCell id="1_GXpO7uH8NoXIV5zCYI-2" value="USER" style="rounded=0;whiteSpace=wrap;html=1;fillColor=#0050ef;strokeColor=#001DBC;fontColor=#ffffff;" vertex="1" parent="1">
          <mxGeometry x="460" y="20" width="170" height="30" as="geometry" />
        </mxCell>
        <mxCell id="1_GXpO7uH8NoXIV5zCYI-3" value="ID - primary key" style="rounded=0;whiteSpace=wrap;html=1;fillColor=#f8cecc;strokeColor=#000000;" vertex="1" parent="1">
          <mxGeometry x="460" y="50" width="170" height="30" as="geometry" />
        </mxCell>
        <mxCell id="1_GXpO7uH8NoXIV5zCYI-4" value="date" style="rounded=0;whiteSpace=wrap;html=1;" vertex="1" parent="1">
          <mxGeometry x="460" y="80" width="170" height="30" as="geometry" />
        </mxCell>
        <mxCell id="1_GXpO7uH8NoXIV5zCYI-5" value="name " style="rounded=0;whiteSpace=wrap;html=1;" vertex="1" parent="1">
          <mxGeometry x="460" y="110" width="170" height="30" as="geometry" />
        </mxCell>
        <mxCell id="1_GXpO7uH8NoXIV5zCYI-6" value="email" style="rounded=0;whiteSpace=wrap;html=1;" vertex="1" parent="1">
          <mxGeometry x="460" y="140" width="170" height="30" as="geometry" />
        </mxCell>
        <mxCell id="1_GXpO7uH8NoXIV5zCYI-7" value="pwd (password)" style="rounded=0;whiteSpace=wrap;html=1;" vertex="1" parent="1">
          <mxGeometry x="460" y="170" width="170" height="30" as="geometry" />
        </mxCell>
        <mxCell id="1_GXpO7uH8NoXIV5zCYI-8" value="token " style="rounded=0;whiteSpace=wrap;html=1;" vertex="1" parent="1">
          <mxGeometry x="460" y="200" width="170" height="30" as="geometry" />
        </mxCell>
        <mxCell id="1_GXpO7uH8NoXIV5zCYI-9" value="CATEGORY" style="rounded=0;whiteSpace=wrap;html=1;fillColor=#0050ef;strokeColor=#001DBC;fontColor=#ffffff;" vertex="1" parent="1">
          <mxGeometry x="140" y="90" width="170" height="30" as="geometry" />
        </mxCell>
        <mxCell id="1_GXpO7uH8NoXIV5zCYI-11" value="date" style="rounded=0;whiteSpace=wrap;html=1;" vertex="1" parent="1">
          <mxGeometry x="140" y="150" width="170" height="30" as="geometry" />
        </mxCell>
        <mxCell id="1_GXpO7uH8NoXIV5zCYI-12" value="name " style="rounded=0;whiteSpace=wrap;html=1;" vertex="1" parent="1">
          <mxGeometry x="140" y="180" width="170" height="30" as="geometry" />
        </mxCell>
        <mxCell id="1_GXpO7uH8NoXIV5zCYI-37" style="edgeStyle=orthogonalEdgeStyle;rounded=0;orthogonalLoop=1;jettySize=auto;html=1;exitX=1;exitY=0.5;exitDx=0;exitDy=0;entryX=0;entryY=0.75;entryDx=0;entryDy=0;" edge="1" parent="1" source="1_GXpO7uH8NoXIV5zCYI-13" target="1_GXpO7uH8NoXIV5zCYI-3">
          <mxGeometry relative="1" as="geometry" />
        </mxCell>
        <mxCell id="1_GXpO7uH8NoXIV5zCYI-13" value="id_user - foreign key" style="rounded=0;whiteSpace=wrap;html=1;fillColor=#d5e8d4;strokeColor=#000000;" vertex="1" parent="1">
          <mxGeometry x="140" y="210" width="170" height="30" as="geometry" />
        </mxCell>
        <mxCell id="1_GXpO7uH8NoXIV5zCYI-16" value="PACKAGES" style="rounded=0;whiteSpace=wrap;html=1;fillColor=#0050ef;strokeColor=#001DBC;fontColor=#ffffff;" vertex="1" parent="1">
          <mxGeometry x="130" y="285" width="170" height="30" as="geometry" />
        </mxCell>
        <mxCell id="1_GXpO7uH8NoXIV5zCYI-17" value="ID - primary key" style="rounded=0;whiteSpace=wrap;html=1;fillColor=#f8cecc;strokeColor=#000000;" vertex="1" parent="1">
          <mxGeometry x="130" y="315" width="170" height="30" as="geometry" />
        </mxCell>
        <mxCell id="1_GXpO7uH8NoXIV5zCYI-18" value="date" style="rounded=0;whiteSpace=wrap;html=1;strokeColor=#000000;" vertex="1" parent="1">
          <mxGeometry x="130" y="345" width="170" height="30" as="geometry" />
        </mxCell>
        <mxCell id="1_GXpO7uH8NoXIV5zCYI-19" value="name " style="rounded=0;whiteSpace=wrap;html=1;" vertex="1" parent="1">
          <mxGeometry x="130" y="375" width="170" height="30" as="geometry" />
        </mxCell>
        <mxCell id="1_GXpO7uH8NoXIV5zCYI-20" value="status" style="rounded=0;whiteSpace=wrap;html=1;" vertex="1" parent="1">
          <mxGeometry x="130" y="405" width="170" height="30" as="geometry" />
        </mxCell>
        <mxCell id="1_GXpO7uH8NoXIV5zCYI-40" style="edgeStyle=orthogonalEdgeStyle;rounded=0;orthogonalLoop=1;jettySize=auto;html=1;exitX=1;exitY=0.5;exitDx=0;exitDy=0;entryX=0;entryY=0.25;entryDx=0;entryDy=0;" edge="1" parent="1" source="1_GXpO7uH8NoXIV5zCYI-21" target="1_GXpO7uH8NoXIV5zCYI-3">
          <mxGeometry relative="1" as="geometry">
            <Array as="points">
              <mxPoint x="420" y="450" />
              <mxPoint x="420" y="58" />
            </Array>
          </mxGeometry>
        </mxCell>
        <mxCell id="1_GXpO7uH8NoXIV5zCYI-21" value="id_user - foreign key" style="rounded=0;whiteSpace=wrap;html=1;fillColor=#d5e8d4;strokeColor=#000000;" vertex="1" parent="1">
          <mxGeometry x="130" y="435" width="170" height="30" as="geometry" />
        </mxCell>
        <mxCell id="1_GXpO7uH8NoXIV5zCYI-41" style="edgeStyle=orthogonalEdgeStyle;rounded=0;orthogonalLoop=1;jettySize=auto;html=1;exitX=0;exitY=0.25;exitDx=0;exitDy=0;entryX=0;entryY=0.5;entryDx=0;entryDy=0;" edge="1" parent="1" source="1_GXpO7uH8NoXIV5zCYI-22" target="1_GXpO7uH8NoXIV5zCYI-23">
          <mxGeometry relative="1" as="geometry">
            <Array as="points">
              <mxPoint x="60" y="473" />
              <mxPoint x="60" y="135" />
            </Array>
          </mxGeometry>
        </mxCell>
        <mxCell id="1_GXpO7uH8NoXIV5zCYI-22" value="id_category - foreign key" style="rounded=0;whiteSpace=wrap;html=1;fillColor=#d5e8d4;strokeColor=#000000;" vertex="1" parent="1">
          <mxGeometry x="130" y="465" width="170" height="30" as="geometry" />
        </mxCell>
        <mxCell id="1_GXpO7uH8NoXIV5zCYI-23" value="ID - primary key" style="rounded=0;whiteSpace=wrap;html=1;fillColor=#f8cecc;strokeColor=#000000;" vertex="1" parent="1">
          <mxGeometry x="140" y="120" width="170" height="30" as="geometry" />
        </mxCell>
        <mxCell id="1_GXpO7uH8NoXIV5zCYI-24" value="CARDS" style="rounded=0;whiteSpace=wrap;html=1;fillColor=#0050ef;strokeColor=#001DBC;fontColor=#ffffff;" vertex="1" parent="1">
          <mxGeometry x="590" y="270" width="170" height="30" as="geometry" />
        </mxCell>
        <mxCell id="1_GXpO7uH8NoXIV5zCYI-25" value="ID - primary key" style="rounded=0;whiteSpace=wrap;html=1;fillColor=#f8cecc;strokeColor=#000000;" vertex="1" parent="1">
          <mxGeometry x="590" y="300" width="170" height="30" as="geometry" />
        </mxCell>
        <mxCell id="1_GXpO7uH8NoXIV5zCYI-26" value="date" style="rounded=0;whiteSpace=wrap;html=1;strokeColor=#000000;" vertex="1" parent="1">
          <mxGeometry x="590" y="330" width="170" height="30" as="geometry" />
        </mxCell>
        <mxCell id="1_GXpO7uH8NoXIV5zCYI-27" value="side_a" style="rounded=0;whiteSpace=wrap;html=1;" vertex="1" parent="1">
          <mxGeometry x="590" y="360" width="170" height="30" as="geometry" />
        </mxCell>
        <mxCell id="1_GXpO7uH8NoXIV5zCYI-28" value="side_b" style="rounded=0;whiteSpace=wrap;html=1;" vertex="1" parent="1">
          <mxGeometry x="590" y="390" width="170" height="30" as="geometry" />
        </mxCell>
        <mxCell id="1_GXpO7uH8NoXIV5zCYI-42" style="edgeStyle=orthogonalEdgeStyle;rounded=0;orthogonalLoop=1;jettySize=auto;html=1;exitX=0;exitY=0.25;exitDx=0;exitDy=0;entryX=1;entryY=0.5;entryDx=0;entryDy=0;" edge="1" parent="1" source="1_GXpO7uH8NoXIV5zCYI-29" target="1_GXpO7uH8NoXIV5zCYI-3">
          <mxGeometry relative="1" as="geometry" />
        </mxCell>
        <mxCell id="1_GXpO7uH8NoXIV5zCYI-29" value="id_user - foreign key" style="rounded=0;whiteSpace=wrap;html=1;fillColor=#d5e8d4;strokeColor=#000000;" vertex="1" parent="1">
          <mxGeometry x="590" y="420" width="170" height="30" as="geometry" />
        </mxCell>
        <mxCell id="1_GXpO7uH8NoXIV5zCYI-31" value="MAILBOX (join table)" style="rounded=0;whiteSpace=wrap;html=1;fillColor=#0050ef;strokeColor=#001DBC;fontColor=#ffffff;" vertex="1" parent="1">
          <mxGeometry x="450" y="495" width="170" height="30" as="geometry" />
        </mxCell>
        <mxCell id="1_GXpO7uH8NoXIV5zCYI-38" style="edgeStyle=orthogonalEdgeStyle;rounded=0;orthogonalLoop=1;jettySize=auto;html=1;exitX=1;exitY=0.5;exitDx=0;exitDy=0;entryX=1;entryY=0.5;entryDx=0;entryDy=0;" edge="1" parent="1" source="1_GXpO7uH8NoXIV5zCYI-33" target="1_GXpO7uH8NoXIV5zCYI-25">
          <mxGeometry relative="1" as="geometry" />
        </mxCell>
        <mxCell id="1_GXpO7uH8NoXIV5zCYI-39" style="edgeStyle=orthogonalEdgeStyle;rounded=0;orthogonalLoop=1;jettySize=auto;html=1;exitX=0;exitY=0.5;exitDx=0;exitDy=0;entryX=1;entryY=0.5;entryDx=0;entryDy=0;" edge="1" parent="1" source="1_GXpO7uH8NoXIV5zCYI-32" target="1_GXpO7uH8NoXIV5zCYI-17">
          <mxGeometry relative="1" as="geometry" />
        </mxCell>
        <mxCell id="1_GXpO7uH8NoXIV5zCYI-32" value="id_pack - foreign key" style="rounded=0;whiteSpace=wrap;html=1;fillColor=#d5e8d4;strokeColor=#000000;" vertex="1" parent="1">
          <mxGeometry x="450" y="525" width="170" height="30" as="geometry" />
        </mxCell>
        <mxCell id="1_GXpO7uH8NoXIV5zCYI-33" value="id_card - foreign table" style="rounded=0;whiteSpace=wrap;html=1;fillColor=#d5e8d4;strokeColor=#000000;" vertex="1" parent="1">
          <mxGeometry x="450" y="555" width="170" height="30" as="geometry" />
        </mxCell>
      </root>
    </mxGraphModel>
  </diagram>
</mxfile>
